<?xml version="1.0" encoding="utf-8"?>
<!-- Generator: Adobe Illustrator 24.2.2, SVG Export Plug-In . SVG Version: 6.00 Build 0)  -->
<svg version="1.1" id="Layer_1" xmlns="http://www.w3.org/2000/svg" xmlns:xlink="http://www.w3.org/1999/xlink" x="0px" y="0px"
	 viewBox="0 0 1107.1 433.4" style="enable-background:new 0 0 1107.1 433.4;" xml:space="preserve">
<g>
	<path d="M614.6,208.7c-20.7-4.8-21.3-8.3-19.8-14.7c1.5-6.5,20.3-9.4,26,5.5l16.9-5.1c0,0-6-21.5-33.4-20.7
		c-27.5,0.8-30.4,18.9-29.4,27.1c1,8.3,4.5,19.5,27.5,24c0,0,16.9,1.8,17.5,10.9c0,0,0.7,9.4-13.9,7.8
		c-14.6-1.7-15.6-10.1-15.9-12.6l-17.5,5.6c0,0,4.6,22.5,34.6,23.3c29.9,0.8,32.6-19.7,32.3-28C638.9,223.6,635.3,213.5,614.6,208.7
		z"/>
	<polygon points="647.2,192.3 673,192.3 672.8,258.3 691.9,258.3 691.9,192.5 715.8,192.5 715.8,177.1 647.2,177.1 	"/>
	<path d="M854.4,177.1h-37.6v81.2h29c0,0,46.1,3.1,46.1-41.6C892,216.7,894.7,178.6,854.4,177.1z M851.1,240.5h-14.6v-48.1
		c11.7-0.5,36.2-3,36.5,22.8C873.1,241,851.1,240.5,851.1,240.5z"/>
	<rect x="907.4" y="177.1" width="20.1" height="81.3"/>
	<path d="M985.3,173.8c-23.1,0-41.9,19.1-41.9,42.7c0,23.6,18.8,42.7,41.9,42.7c23.1,0,41.9-19.1,41.9-42.7
		C1027.2,192.9,1008.5,173.8,985.3,173.8z M985.3,242.2c-12,0-21.8-11.5-21.8-25.7s9.7-25.7,21.8-25.7c12,0,21.8,11.5,21.8,25.7
		S997.3,242.2,985.3,242.2z"/>
	<path d="M187.7,173.7c-23.1,0-41.8,19.2-41.8,42.9s18.7,42.9,41.8,42.9c23.1,0,41.7-19.2,41.7-42.9S210.7,173.7,187.7,173.7z
		 M187.7,250.6c-17.4,0-31.4-15.2-31.4-34s14.1-34,31.4-34c17.3,0,31.4,15.2,31.4,34S205,250.6,187.7,250.6z"/>
	<polygon points="143.1,175.3 130.9,175.3 90,216.2 90,175.3 79.9,175.3 79.9,258.9 89.6,258.9 89.6,229.3 101.6,217.9 134.1,258.9 
		146.7,258.9 108.1,211.4 	"/>
	<polygon points="300.7,240.9 254.4,175.3 245.6,175.3 245.6,259.5 254.5,259.5 254.5,192 302.3,258.9 310.1,258.9 310.1,175.3 
		300.7,175.3 	"/>
	<polygon points="325.5,184.2 353.6,184.2 353.6,259.5 363,259.5 363,184.4 390.7,184.4 390.7,175.3 325.5,175.3 	"/>
	<path d="M467.2,198.9c-0.3-12.5-8-18.4-14.8-21.2c-4.1-1.7-8.5-2.5-13-2.5h-33.9v84.2h9.3v-35.8h22.5l23.3,35.8h10.3l-23.7-36.6
		C447.2,222.9,467.7,221.1,467.2,198.9z M414.3,216.3v-32.6h22.5c0,0,20.3-0.5,21,14.9c0.7,15.4-14.1,17.7-17,17.7H414.3z"/>
	<path d="M514.2,175.3l-34.7,84.2h10.6l10-24.6h37.9l9.7,24.6h11.1l-34.1-84.2H514.2z M503.2,227.1l16-39.4l15.6,39.4H503.2z"/>
	<g>
		<path d="M780.3,177.1v47c0,9.2-7.5,16.6-16.6,16.6c-9.2,0-16.6-7.5-16.6-16.6v-47h-17.7v47c0,18.9,15.4,34.3,34.3,34.3
			c18.9,0,34.3-15.4,34.3-34.3v-47H780.3z"/>
	</g>
</g>
</svg>
